<svg xmlns="http://www.w3.org/2000/svg" viewBox="0 0 1188 1456" width="1188" height="1456" font-family="Helvetica Neue, Helvetica, Arial, sans-serif"><rect width="1188" height="1456" fill="#faf8f3"/><text x="56" y="72" font-size="20" letter-spacing="3" fill="#2F4A35">KŌRA · COLOUR · SOLID / PAPER / DUO / GLYPH</text><text x="306" y="128" font-size="15" letter-spacing="2" fill="#4a4a46">SOLID</text><text x="518" y="128" font-size="15" letter-spacing="2" fill="#4a4a46">PAPER</text><text x="730" y="128" font-size="15" letter-spacing="2" fill="#4a4a46">DUO</text><text x="942" y="128" font-size="15" letter-spacing="2" fill="#4a4a46">GLYPH</text><rect x="56" y="233" width="24" height="24" fill="#B8382C"/><text x="94" y="245" font-size="22" fill="#111111">red</text><text x="94" y="271" font-size="16" fill="#4a4a46">#B8382C</text><svg x="306" y="150" width="190" height="190" viewBox="0 0 512 512"><rect width="512" height="512" fill="#B8382C"/><rect x="172" y="97" width="168" height="38" fill="#FFFFFF"/><circle cx="256" cy="300" r="96" fill="none" stroke="#FFFFFF" stroke-width="38"/></svg><svg x="518" y="150" width="190" height="190" viewBox="0 0 512 512"><rect width="512" height="512" fill="#FFFFFF"/><rect x="8" y="8" width="496" height="496" fill="none" stroke="#B8382C" stroke-width="16"/><rect x="172" y="97" width="168" height="38" fill="#B8382C"/><circle cx="256" cy="300" r="96" fill="none" stroke="#B8382C" stroke-width="38"/></svg><svg x="730" y="150" width="190" height="190" viewBox="0 0 512 512"><rect width="512" height="512" fill="#FFFFFF"/><rect x="8" y="8" width="496" height="496" fill="none" stroke="#111111" stroke-width="16"/><rect x="172" y="97" width="168" height="38" fill="#B8382C"/><circle cx="256" cy="300" r="96" fill="none" stroke="#B8382C" stroke-width="38"/></svg><svg x="942" y="150" width="190" height="190" viewBox="0 0 512 512"><rect x="172" y="97" width="168" height="38" fill="#B8382C"/><circle cx="256" cy="300" r="96" fill="none" stroke="#B8382C" stroke-width="38"/></svg><rect x="56" y="445" width="24" height="24" fill="#7B2A2A"/><text x="94" y="457" font-size="22" fill="#111111">maroon</text><text x="94" y="483" font-size="16" fill="#4a4a46">#7B2A2A</text><svg x="306" y="362" width="190" height="190" viewBox="0 0 512 512"><rect width="512" height="512" fill="#7B2A2A"/><rect x="172" y="97" width="168" height="38" fill="#FFFFFF"/><circle cx="256" cy="300" r="96" fill="none" stroke="#FFFFFF" stroke-width="38"/></svg><svg x="518" y="362" width="190" height="190" viewBox="0 0 512 512"><rect width="512" height="512" fill="#FFFFFF"/><rect x="8" y="8" width="496" height="496" fill="none" stroke="#7B2A2A" stroke-width="16"/><rect x="172" y="97" width="168" height="38" fill="#7B2A2A"/><circle cx="256" cy="300" r="96" fill="none" stroke="#7B2A2A" stroke-width="38"/></svg><svg x="730" y="362" width="190" height="190" viewBox="0 0 512 512"><rect width="512" height="512" fill="#FFFFFF"/><rect x="8" y="8" width="496" height="496" fill="none" stroke="#111111" stroke-width="16"/><rect x="172" y="97" width="168" height="38" fill="#7B2A2A"/><circle cx="256" cy="300" r="96" fill="none" stroke="#7B2A2A" stroke-width="38"/></svg><svg x="942" y="362" width="190" height="190" viewBox="0 0 512 512"><rect x="172" y="97" width="168" height="38" fill="#7B2A2A"/><circle cx="256" cy="300" r="96" fill="none" stroke="#7B2A2A" stroke-width="38"/></svg><rect x="56" y="657" width="24" height="24" fill="#2F4A35"/><text x="94" y="669" font-size="22" fill="#111111">green</text><text x="94" y="695" font-size="16" fill="#4a4a46">#2F4A35</text><svg x="306" y="574" width="190" height="190" viewBox="0 0 512 512"><rect width="512" height="512" fill="#2F4A35"/><rect x="172" y="97" width="168" height="38" fill="#FFFFFF"/><circle cx="256" cy="300" r="96" fill="none" stroke="#FFFFFF" stroke-width="38"/></svg><svg x="518" y="574" width="190" height="190" viewBox="0 0 512 512"><rect width="512" height="512" fill="#FFFFFF"/><rect x="8" y="8" width="496" height="496" fill="none" stroke="#2F4A35" stroke-width="16"/><rect x="172" y="97" width="168" height="38" fill="#2F4A35"/><circle cx="256" cy="300" r="96" fill="none" stroke="#2F4A35" stroke-width="38"/></svg><svg x="730" y="574" width="190" height="190" viewBox="0 0 512 512"><rect width="512" height="512" fill="#FFFFFF"/><rect x="8" y="8" width="496" height="496" fill="none" stroke="#111111" stroke-width="16"/><rect x="172" y="97" width="168" height="38" fill="#2F4A35"/><circle cx="256" cy="300" r="96" fill="none" stroke="#2F4A35" stroke-width="38"/></svg><svg x="942" y="574" width="190" height="190" viewBox="0 0 512 512"><rect x="172" y="97" width="168" height="38" fill="#2F4A35"/><circle cx="256" cy="300" r="96" fill="none" stroke="#2F4A35" stroke-width="38"/></svg><rect x="56" y="869" width="24" height="24" fill="#4A7C4E"/><text x="94" y="881" font-size="22" fill="#111111">moss</text><text x="94" y="907" font-size="16" fill="#4a4a46">#4A7C4E</text><svg x="306" y="786" width="190" height="190" viewBox="0 0 512 512"><rect width="512" height="512" fill="#4A7C4E"/><rect x="172" y="97" width="168" height="38" fill="#FFFFFF"/><circle cx="256" cy="300" r="96" fill="none" stroke="#FFFFFF" stroke-width="38"/></svg><svg x="518" y="786" width="190" height="190" viewBox="0 0 512 512"><rect width="512" height="512" fill="#FFFFFF"/><rect x="8" y="8" width="496" height="496" fill="none" stroke="#4A7C4E" stroke-width="16"/><rect x="172" y="97" width="168" height="38" fill="#4A7C4E"/><circle cx="256" cy="300" r="96" fill="none" stroke="#4A7C4E" stroke-width="38"/></svg><svg x="730" y="786" width="190" height="190" viewBox="0 0 512 512"><rect width="512" height="512" fill="#FFFFFF"/><rect x="8" y="8" width="496" height="496" fill="none" stroke="#111111" stroke-width="16"/><rect x="172" y="97" width="168" height="38" fill="#4A7C4E"/><circle cx="256" cy="300" r="96" fill="none" stroke="#4A7C4E" stroke-width="38"/></svg><svg x="942" y="786" width="190" height="190" viewBox="0 0 512 512"><rect x="172" y="97" width="168" height="38" fill="#4A7C4E"/><circle cx="256" cy="300" r="96" fill="none" stroke="#4A7C4E" stroke-width="38"/></svg><rect x="56" y="1081" width="24" height="24" fill="#2F5A96"/><text x="94" y="1093" font-size="22" fill="#111111">blue</text><text x="94" y="1119" font-size="16" fill="#4a4a46">#2F5A96</text><svg x="306" y="998" width="190" height="190" viewBox="0 0 512 512"><rect width="512" height="512" fill="#2F5A96"/><rect x="172" y="97" width="168" height="38" fill="#FFFFFF"/><circle cx="256" cy="300" r="96" fill="none" stroke="#FFFFFF" stroke-width="38"/></svg><svg x="518" y="998" width="190" height="190" viewBox="0 0 512 512"><rect width="512" height="512" fill="#FFFFFF"/><rect x="8" y="8" width="496" height="496" fill="none" stroke="#2F5A96" stroke-width="16"/><rect x="172" y="97" width="168" height="38" fill="#2F5A96"/><circle cx="256" cy="300" r="96" fill="none" stroke="#2F5A96" stroke-width="38"/></svg><svg x="730" y="998" width="190" height="190" viewBox="0 0 512 512"><rect width="512" height="512" fill="#FFFFFF"/><rect x="8" y="8" width="496" height="496" fill="none" stroke="#111111" stroke-width="16"/><rect x="172" y="97" width="168" height="38" fill="#2F5A96"/><circle cx="256" cy="300" r="96" fill="none" stroke="#2F5A96" stroke-width="38"/></svg><svg x="942" y="998" width="190" height="190" viewBox="0 0 512 512"><rect x="172" y="97" width="168" height="38" fill="#2F5A96"/><circle cx="256" cy="300" r="96" fill="none" stroke="#2F5A96" stroke-width="38"/></svg><rect x="56" y="1293" width="24" height="24" fill="#1F3352"/><text x="94" y="1305" font-size="22" fill="#111111">navy</text><text x="94" y="1331" font-size="16" fill="#4a4a46">#1F3352</text><svg x="306" y="1210" width="190" height="190" viewBox="0 0 512 512"><rect width="512" height="512" fill="#1F3352"/><rect x="172" y="97" width="168" height="38" fill="#FFFFFF"/><circle cx="256" cy="300" r="96" fill="none" stroke="#FFFFFF" stroke-width="38"/></svg><svg x="518" y="1210" width="190" height="190" viewBox="0 0 512 512"><rect width="512" height="512" fill="#FFFFFF"/><rect x="8" y="8" width="496" height="496" fill="none" stroke="#1F3352" stroke-width="16"/><rect x="172" y="97" width="168" height="38" fill="#1F3352"/><circle cx="256" cy="300" r="96" fill="none" stroke="#1F3352" stroke-width="38"/></svg><svg x="730" y="1210" width="190" height="190" viewBox="0 0 512 512"><rect width="512" height="512" fill="#FFFFFF"/><rect x="8" y="8" width="496" height="496" fill="none" stroke="#111111" stroke-width="16"/><rect x="172" y="97" width="168" height="38" fill="#1F3352"/><circle cx="256" cy="300" r="96" fill="none" stroke="#1F3352" stroke-width="38"/></svg><svg x="942" y="1210" width="190" height="190" viewBox="0 0 512 512"><rect x="172" y="97" width="168" height="38" fill="#1F3352"/><circle cx="256" cy="300" r="96" fill="none" stroke="#1F3352" stroke-width="38"/></svg></svg>