<?xml version="1.0" encoding="UTF-8"?>
<svg viewBox="0 0 600 800" xmlns="http://www.w3.org/2000/svg" aria-label="Butterfly lime soda in a clear kōra cup">
  <defs>
    <linearGradient id="l-bl" x1="0" y1="0" x2="0" y2="1">
      <stop offset="0" stop-color="#3f7fd6"/><stop offset=".45" stop-color="#6a56c8"/>
      <stop offset=".78" stop-color="#a049b0"/><stop offset="1" stop-color="#cf5f96"/>
    </linearGradient>
    <linearGradient id="g-bl" x1="0" y1="0" x2="1" y2="0">
      <stop offset="0" stop-color="#fff" stop-opacity=".55"/>
      <stop offset=".18" stop-color="#fff" stop-opacity=".08"/>
      <stop offset=".82" stop-color="#fff" stop-opacity=".05"/>
      <stop offset="1" stop-color="#fff" stop-opacity=".4"/>
    </linearGradient>
    <clipPath id="c-bl"><path d="M166 216 L434 216 L388 668 Q386 684 370 684 L230 684 Q214 684 212 668 Z"/></clipPath>
    <filter id="sh-bl" x="-50%" y="-50%" width="200%" height="200%"><feGaussianBlur stdDeviation="13"/></filter>
    <linearGradient id="rf-bl" x1="0" y1="0" x2="0" y2="1">
      <stop offset="0" stop-color="#fff" stop-opacity=".22"/><stop offset="1" stop-color="#fff" stop-opacity="0"/>
    </linearGradient>
    <mask id="rm-bl"><rect x="0" y="684" width="600" height="150" fill="url(#rf-bl)"/></mask>
  </defs>

  <rect width="600" height="800" fill="#fff"/>
  <g mask="url(#rm-bl)" transform="translate(0,1368) scale(1,-1)" opacity=".5">
    <path d="M166 216 L434 216 L388 668 Q386 684 370 684 L230 684 Q214 684 212 668 Z" fill="url(#l-bl)" opacity=".5"/>
  </g>
  <ellipse cx="300" cy="690" rx="132" ry="15" fill="#2a2440" opacity=".2" filter="url(#sh-bl)"/>

  <g clip-path="url(#c-bl)">
    <rect x="150" y="216" width="300" height="470" fill="#fbfcfd"/>
    <rect x="150" y="262" width="300" height="424" fill="url(#l-bl)"/>
    <g fill="#fff" opacity=".38">
      <circle cx="238" cy="596" r="4.5"/><circle cx="258" cy="530" r="3"/>
      <circle cx="246" cy="462" r="4"/><circle cx="352" cy="608" r="3.5"/>
      <circle cx="366" cy="540" r="4.5"/><circle cx="350" cy="470" r="3"/>
      <circle cx="300" cy="566" r="3"/><circle cx="306" cy="496" r="4"/>
    </g>
    <g opacity=".2">
      <rect x="222" y="306" width="66" height="60" rx="12" fill="#fff" transform="rotate(-14 255 336)"/>
      <rect x="318" y="344" width="58" height="54" rx="11" fill="#fff" transform="rotate(19 347 371)"/>
      <rect x="248" y="418" width="68" height="60" rx="12" fill="#fff" transform="rotate(8 282 448)"/>
    </g>
    <rect x="150" y="216" width="300" height="470" fill="url(#g-bl)"/>
  </g>

  <ellipse cx="300" cy="262" rx="150" ry="16" fill="#5f92dd" opacity=".85" clip-path="url(#c-bl)"/>
  <ellipse cx="300" cy="216" rx="134" ry="14" fill="none" stroke="#cfd6de" stroke-width="3"/>
  <path d="M166 216 L434 216 L388 668 Q386 684 370 684 L230 684 Q214 684 212 668 Z"
        fill="none" stroke="#cfd6de" stroke-width="2.5"/>

  <g transform="translate(300 452) scale(.2)">
    <rect x="-256" y="-256" width="512" height="512" fill="#fff"/>
    <rect x="-248" y="-248" width="496" height="496" fill="none" stroke="#111" stroke-width="16"/>
    <rect x="-84" y="-159" width="168" height="38" fill="#111"/>
    <circle cx="0" cy="44" r="96" fill="none" stroke="#111" stroke-width="38"/>
  </g>
</svg>
